<?xml version="1.0" encoding="utf-8" standalone="no"?>
<!DOCTYPE svg PUBLIC "-//W3C//DTD SVG 1.0//EN" "http://www.w3.org/TR/2001/REC-SVG-20010904/DTD/svg10.dtd"[]>
<svg xmlns="http://www.w3.org/2000/svg" xmlns:xlink="http://www.w3.org/1999/xlink" id="body_1" width="1334" height="1334" viewBox="0 0 1334 1334">
  <g transform="matrix(2.668 0 0 2.668 0 0)">
    <g transform="matrix(0.1 0 -0 -0.1 0 500)">
      <path d="M1980 3499C 1980 3494 1985 3492 1990 3495C 1996 3498 2000 3503 2000 3506C 2000 3508 1996 3510 1990 3510C 1985 3510 1980 3505 1980 3499z" stroke="none" fill="#FFFFFF" fill-rule="nonzero" />
      <path d="M2145 3498C 2021 3482 1906 3398 1849 3281L1849 3281L1815 3212L1773 3251C 1724 3296 1678 3304 1660 3269C 1642 3236 1658 3194 1711 3136C 1738 3106 1760 3076 1760 3069C 1760 3062 1750 3046 1738 3033C 1719 3013 1718 3006 1728 2990C 1742 2967 1731 2933 1701 2908C 1678 2889 1674 2875 1690 2865C 1695 2862 1697 2840 1694 2817C 1689 2785 1692 2771 1704 2761C 1718 2749 1730 2756 1796 2814L1796 2814L1872 2881L1926 2830C 1956 2802 2009 2765 2045 2749C 2081 2732 2110 2716 2110 2714C 2110 2711 2101 2692 2090 2670C 2079 2648 2070 2624 2070 2615C 2070 2589 2114 2598 2145 2630C 2168 2654 2176 2657 2192 2649C 2218 2635 2241 2655 2238 2689C 2236 2708 2240 2715 2255 2718C 2359 2735 2463 2798 2521 2878C 2571 2948 2592 3020 2592 3118C 2591 3219 2562 3293 2492 3371C 2402 3470 2280 3515 2145 3498zM2314 3470C 2350 3458 2380 3447 2380 3445C 2380 3437 2318 3350 2312 3349C 2222 3340 2211 3334 2165 3261C 2126 3198 2108 3189 2070 3212C 2054 3222 2047 3221 2028 3204C 1998 3176 1964 3169 1949 3186C 1934 3205 1927 3204 1900 3180C 1879 3162 1874 3161 1856 3174C 1844 3181 1835 3194 1835 3201C 1835 3215 1852 3218 1930 3221C 1974 3222 1997 3234 2005 3259C 2008 3270 2027 3288 2047 3300C 2083 3321 2086 3334 2070 3405C 2069 3411 2068 3427 2069 3442C 2070 3465 2076 3470 2113 3478C 2182 3494 2244 3491 2314 3470zM2055 3418C 2057 3400 2061 3373 2065 3358C 2071 3334 2068 3328 2035 3309C 2015 3297 1995 3277 1990 3265C 1983 3247 1971 3242 1923 3237C 1890 3234 1861 3235 1855 3241C 1844 3252 1868 3301 1913 3355C 1942 3390 2040 3462 2049 3454C 2051 3452 2054 3436 2055 3418zM2461 3384C 2562 3289 2604 3138 2566 3007C 2557 2976 2546 2949 2541 2946C 2536 2943 2521 2949 2506 2961C 2484 2978 2472 2980 2420 2974C 2350 2966 2339 2972 2305 3040C 2288 3074 2272 3091 2248 3100C 2175 3127 2169 3132 2175 3161C 2179 3177 2176 3197 2168 3209C 2157 3227 2157 3232 2169 3240C 2177 3244 2191 3263 2199 3282C 2215 3315 2223 3318 2317 3336C 2329 3338 2341 3349 2345 3359C 2353 3385 2389 3430 2401 3430C 2406 3430 2433 3409 2461 3384zM1794 3209C 1852 3147 1879 3137 1912 3166C 1926 3180 1932 3180 1945 3170C 1964 3155 2008 3165 2036 3191C 2054 3208 2059 3209 2069 3196C 2077 3187 2093 3184 2119 3187C 2140 3190 2160 3188 2164 3182C 2167 3176 2130 3135 2080 3089C 2031 3044 1990 3003 1990 2999C 1990 2993 2133 2809 2175 2762C 2176 2761 2196 2767 2220 2775C 2291 2800 2298 2794 2252 2747C 2222 2717 2213 2701 2220 2690C 2233 2669 2222 2659 2195 2666C 2177 2670 2161 2663 2131 2639C 2108 2621 2087 2609 2084 2612C 2081 2615 2090 2640 2104 2667L2104 2667L2129 2717L2020 2825L1912 2933L1882 2909C 1866 2896 1822 2858 1786 2826C 1738 2784 1716 2770 1708 2778C 1701 2785 1701 2798 1709 2821C 1717 2845 1717 2856 1708 2868C 1698 2879 1700 2885 1716 2899C 1745 2922 1760 2970 1746 2993C 1737 3007 1739 3014 1751 3023C 1790 3052 1784 3077 1726 3142C 1682 3190 1670 3211 1670 3236C 1670 3299 1722 3287 1794 3209zM2175 3114C 2186 3106 2212 3095 2233 3089C 2265 3081 2274 3072 2290 3036C 2300 3012 2321 2983 2336 2971C 2365 2948 2392 2947 2455 2964C 2468 2968 2485 2961 2503 2945C 2530 2921 2531 2918 2517 2897C 2509 2885 2492 2864 2479 2850C 2458 2829 2455 2828 2452 2843C 2450 2854 2436 2863 2418 2867C 2402 2870 2379 2885 2368 2901C 2330 2952 2265 2956 2233 2910C 2224 2898 2207 2890 2189 2890C 2173 2890 2152 2882 2141 2871C 2123 2853 2121 2854 2066 2921C 2035 2959 2010 2993 2010 2997C 2010 3005 2141 3129 2150 3129C 2153 3129 2164 3123 2175 3114zM2347 2899C 2362 2883 2390 2862 2408 2855C 2431 2845 2440 2835 2438 2823C 2434 2803 2319 2740 2288 2740C 2268 2740 2268 2741 2283 2758C 2321 2800 2295 2818 2230 2795C 2187 2780 2186 2780 2161 2805C 2129 2836 2140 2861 2190 2871C 2208 2875 2234 2890 2249 2904C 2283 2938 2312 2937 2347 2899zM1990 2835C 2031 2794 2061 2760 2057 2760C 2020 2760 1882 2879 1895 2900C 1906 2917 1914 2911 1990 2835z" stroke="none" fill="#FFFFFF" fill-rule="nonzero" />
      <path d="M2107 3052C 2053 3019 2046 2954 2095 2932C 2179 2894 2245 2963 2190 3032C 2165 3065 2139 3071 2107 3052zM2179 3023C 2199 2998 2200 2968 2180 2947C 2166 2932 2110 2937 2091 2954C 2069 2974 2072 2993 2103 3028C 2130 3057 2154 3056 2179 3023z" stroke="none" fill="#FFFFFF" fill-rule="nonzero" />
      <path d="M1921 3466C 1871 3429 1805 3345 1787 3298C 1774 3263 1796 3281 1819 3325C 1832 3349 1869 3395 1902 3426C 1965 3486 1974 3505 1921 3466z" stroke="none" fill="#FFFFFF" fill-rule="nonzero" />
      <path d="M1132 3453L1135 3425L1253 3422L1370 3419L1370 3192C 1370 2985 1368 2962 1350 2933C 1312 2870 1208 2869 1143 2932L1143 2932L1109 2965L1090 2940C 1071 2915 1071 2915 1093 2892C 1168 2812 1326 2804 1392 2877C 1436 2925 1440 2957 1440 3225L1440 3225L1440 3480L1284 3480L1129 3480L1132 3453z" stroke="none" fill="#FFFFFF" fill-rule="nonzero" />
      <path d="M2780 3155L2780 2830L2815 2830L2850 2830L2850 3155L2850 3480L2815 3480L2780 3480L2780 3155z" stroke="none" fill="#FFFFFF" fill-rule="nonzero" />
      <path d="M3270 3155L3270 2830L3305 2830L3340 2830L3342 3092L3345 3355L3551 3095C 3735 2862 3760 2835 3788 2832L3788 2832L3820 2829L3820 3154L3820 3480L3785 3480L3750 3480L3748 3219L3745 2958L3538 3219C 3349 3457 3328 3480 3300 3480L3300 3480L3270 3480L3270 3155z" stroke="none" fill="#FFFFFF" fill-rule="nonzero" />
      <path d="M2515 2806C 2477 2767 2431 2732 2390 2712C 2354 2695 2333 2680 2343 2680C 2388 2680 2507 2761 2556 2826C 2598 2881 2580 2872 2515 2806z" stroke="none" fill="#FFFFFF" fill-rule="nonzero" />
      <path d="M2290 2669C 2290 2664 2295 2662 2300 2665C 2306 2668 2310 2673 2310 2676C 2310 2678 2306 2680 2300 2680C 2295 2680 2290 2675 2290 2669z" stroke="none" fill="#FFFFFF" fill-rule="nonzero" />
      <path d="M844 2415C 833 2388 851 2380 931 2380L931 2380L1010 2380L1010 2170L1010 1960L1035 1960L1060 1960L1060 2170L1060 2380L1140 2380C 1219 2380 1220 2380 1220 2405L1220 2405L1220 2430L1035 2430C 882 2430 848 2427 844 2415z" stroke="none" fill="#FFFFFF" fill-rule="nonzero" />
      <path d="M1450 2196L1450 1960L1475 1960C 1499 1960 1500 1962 1500 2035L1500 2035L1500 2110L1583 2110L1665 2110L1709 2044C 1762 1967 1772 1957 1800 1962C 1819 1965 1816 1972 1766 2040C 1719 2104 1713 2116 1727 2125C 1776 2156 1798 2183 1809 2225C 1829 2304 1797 2370 1720 2411C 1705 2419 1646 2426 1573 2428L1573 2428L1450 2432L1450 2196zM1711 2364C 1749 2345 1774 2290 1764 2246C 1750 2178 1697 2150 1580 2150L1580 2150L1500 2150L1500 2265L1500 2380L1590 2380C 1653 2380 1690 2375 1711 2364z" stroke="none" fill="#FFFFFF" fill-rule="nonzero" />
      <path d="M2140 2248C 2095 2147 2047 2041 2034 2013L2034 2013L2010 1960L2035 1960C 2057 1960 2065 1969 2087 2020L2087 2020L2113 2080L2246 2080L2379 2080L2406 2020C 2428 1971 2437 1960 2456 1960C 2469 1960 2480 1962 2480 1964C 2480 1965 2433 2070 2376 2196C 2240 2496 2252 2494 2140 2248zM2303 2249C 2329 2190 2350 2138 2350 2131C 2350 2118 2140 2115 2140 2128C 2139 2146 2244 2370 2250 2363C 2254 2359 2278 2307 2303 2249z" stroke="none" fill="#FFFFFF" fill-rule="nonzero" />
      <path d="M2641 2422C 2643 2417 2690 2311 2745 2187C 2878 1886 2863 1886 2995 2186C 3050 2311 3097 2416 3098 2421C 3100 2426 3091 2430 3077 2430C 3054 2430 3044 2412 2964 2230C 2916 2120 2873 2033 2868 2038C 2864 2042 2823 2131 2777 2235C 2699 2411 2691 2425 2666 2428C 2650 2430 2639 2427 2641 2422z" stroke="none" fill="#FFFFFF" fill-rule="nonzero" />
      <path d="M3330 2195L3330 1960L3495 1960C 3653 1960 3660 1961 3660 1980C 3660 1999 3653 2000 3520 2000L3520 2000L3380 2000L3380 2090L3380 2180L3500 2180C 3613 2180 3620 2181 3620 2200C 3620 2219 3613 2220 3500 2220L3500 2220L3380 2220L3380 2300L3380 2380L3515 2380L3650 2380L3650 2405L3650 2430L3490 2430L3330 2430L3330 2195z" stroke="none" fill="#FFFFFF" fill-rule="nonzero" />
      <path d="M3930 2196L3930 1960L4085 1960C 4233 1960 4240 1961 4240 1980C 4240 1999 4233 2000 4110 2000L4110 2000L3980 2000L3978 2213C 3975 2424 3975 2425 3953 2428L3953 2428L3930 2431L3930 2196z" stroke="none" fill="#FFFFFF" fill-rule="nonzero" />
    </g>
  </g>
</svg>