<?xml version="1.0" standalone="no"?>
<!DOCTYPE svg PUBLIC "-//W3C//DTD SVG 20010904//EN"
 "http://www.w3.org/TR/2001/REC-SVG-20010904/DTD/svg10.dtd">
<svg version="1.0" xmlns="http://www.w3.org/2000/svg"
 width="500.000000pt" height="500.000000pt" viewBox="0 0 500.000000 500.000000"
 preserveAspectRatio="xMidYMid meet">

<g transform="translate(0.000000,500.000000) scale(0.100000,-0.100000)"
fill="#000000" stroke="none">
<path d="M1980 3499 c0 -5 5 -7 10 -4 6 3 10 8 10 11 0 2 -4 4 -10 4 -5 0 -10
-5 -10 -11z"/>
<path d="M2145 3498 c-124 -16 -239 -100 -296 -217 l-34 -69 -42 39 c-49 45
-95 53 -113 18 -18 -33 -2 -75 51 -133 27 -30 49 -60 49 -67 0 -7 -10 -23 -22
-36 -19 -20 -20 -27 -10 -43 14 -23 3 -57 -27 -82 -23 -19 -27 -33 -11 -43 5
-3 7 -25 4 -48 -5 -32 -2 -46 10 -56 14 -12 26 -5 92 53 l76 67 54 -51 c30
-28 83 -65 119 -81 36 -17 65 -33 65 -35 0 -3 -9 -22 -20 -44 -11 -22 -20 -46
-20 -55 0 -26 44 -17 75 15 23 24 31 27 47 19 26 -14 49 6 46 40 -2 19 2 26
17 29 104 17 208 80 266 160 50 70 71 142 71 240 -1 101 -30 175 -100 253 -90
99 -212 144 -347 127z m169 -28 c36 -12 66 -23 66 -25 0 -8 -62 -95 -68 -96
-90 -9 -101 -15 -147 -88 -39 -63 -57 -72 -95 -49 -16 10 -23 9 -42 -8 -30
-28 -64 -35 -79 -18 -15 19 -22 18 -49 -6 -21 -18 -26 -19 -44 -6 -12 7 -21
20 -21 27 0 14 17 17 95 20 44 1 67 13 75 38 3 11 22 29 42 41 36 21 39 34 23
105 -1 6 -2 22 -1 37 1 23 7 28 44 36 69 16 131 13 201 -8z m-259 -52 c2 -18
6 -45 10 -60 6 -24 3 -30 -30 -49 -20 -12 -40 -32 -45 -44 -7 -18 -19 -23 -67
-28 -33 -3 -62 -2 -68 4 -11 11 13 60 58 114 29 35 127 107 136 99 2 -2 5 -18
6 -36z m406 -34 c101 -95 143 -246 105 -377 -9 -31 -20 -58 -25 -61 -5 -3 -20
3 -35 15 -22 17 -34 19 -86 13 -70 -8 -81 -2 -115 66 -17 34 -33 51 -57 60
-73 27 -79 32 -73 61 4 16 1 36 -7 48 -11 18 -11 23 1 31 8 4 22 23 30 42 16
33 24 36 118 54 12 2 24 13 28 23 8 26 44 71 56 71 5 0 32 -21 60 -46z m-667
-175 c58 -62 85 -72 118 -43 14 14 20 14 33 4 19 -15 63 -5 91 21 18 17 23 18
33 5 8 -9 24 -12 50 -9 21 3 41 1 45 -5 3 -6 -34 -47 -84 -93 -49 -45 -90 -86
-90 -90 0 -6 143 -190 185 -237 1 -1 21 5 45 13 71 25 78 19 32 -28 -30 -30
-39 -46 -32 -57 13 -21 2 -31 -25 -24 -18 4 -34 -3 -64 -27 -23 -18 -44 -30
-47 -27 -3 3 6 28 20 55 l25 50 -109 108 -108 108 -30 -24 c-16 -13 -60 -51
-96 -83 -48 -42 -70 -56 -78 -48 -7 7 -7 20 1 43 8 24 8 35 -1 47 -10 11 -8
17 8 31 29 23 44 71 30 94 -9 14 -7 21 5 30 39 29 33 54 -25 119 -44 48 -56
69 -56 94 0 63 52 51 124 -27z m381 -95 c11 -8 37 -19 58 -25 32 -8 41 -17 57
-53 10 -24 31 -53 46 -65 29 -23 56 -24 119 -7 13 4 30 -3 48 -19 27 -24 28
-27 14 -48 -8 -12 -25 -33 -38 -47 -21 -21 -24 -22 -27 -7 -2 11 -16 20 -34
24 -16 3 -39 18 -50 34 -38 51 -103 55 -135 9 -9 -12 -26 -20 -44 -20 -16 0
-37 -8 -48 -19 -18 -18 -20 -17 -75 50 -31 38 -56 72 -56 76 0 8 131 132 140
132 3 0 14 -6 25 -15z m172 -215 c15 -16 43 -37 61 -44 23 -10 32 -20 30 -32
-4 -20 -119 -83 -150 -83 -20 0 -20 1 -5 18 38 42 12 60 -53 37 -43 -15 -44
-15 -69 10 -32 31 -21 56 29 66 18 4 44 19 59 33 34 34 63 33 98 -5z m-357
-64 c41 -41 71 -75 67 -75 -37 0 -175 119 -162 140 11 17 19 11 95 -65z"/>
<path d="M2107 3052 c-54 -33 -61 -98 -12 -120 84 -38 150 31 95 100 -25 33
-51 39 -83 20z m72 -29 c20 -25 21 -55 1 -76 -14 -15 -70 -10 -89 7 -22 20
-19 39 12 74 27 29 51 28 76 -5z"/>
<path d="M1921 3466 c-50 -37 -116 -121 -134 -168 -13 -35 9 -17 32 27 13 24
50 70 83 101 63 60 72 79 19 40z"/>
<path d="M1132 3453 l3 -28 118 -3 117 -3 0 -227 c0 -207 -2 -230 -20 -259
-38 -63 -142 -64 -207 -1 l-34 33 -19 -25 c-19 -25 -19 -25 3 -48 75 -80 233
-88 299 -15 44 48 48 80 48 348 l0 255 -156 0 -155 0 3 -27z"/>
<path d="M2780 3155 l0 -325 35 0 35 0 0 325 0 325 -35 0 -35 0 0 -325z"/>
<path d="M3270 3155 l0 -325 35 0 35 0 2 262 3 263 206 -260 c184 -233 209
-260 237 -263 l32 -3 0 325 0 326 -35 0 -35 0 -2 -261 -3 -261 -207 261 c-189
238 -210 261 -238 261 l-30 0 0 -325z"/>
<path d="M2515 2806 c-38 -39 -84 -74 -125 -94 -36 -17 -57 -32 -47 -32 45 0
164 81 213 146 42 55 24 46 -41 -20z"/>
<path d="M2290 2669 c0 -5 5 -7 10 -4 6 3 10 8 10 11 0 2 -4 4 -10 4 -5 0 -10
-5 -10 -11z"/>
<path d="M844 2415 c-11 -27 7 -35 87 -35 l79 0 0 -210 0 -210 25 0 25 0 0
210 0 210 80 0 c79 0 80 0 80 25 l0 25 -185 0 c-153 0 -187 -3 -191 -15z"/>
<path d="M1450 2196 l0 -236 25 0 c24 0 25 2 25 75 l0 75 83 0 82 0 44 -66
c53 -77 63 -87 91 -82 19 3 16 10 -34 78 -47 64 -53 76 -39 85 49 31 71 58 82
100 20 79 -12 145 -89 186 -15 8 -74 15 -147 17 l-123 4 0 -236z m261 168 c38
-19 63 -74 53 -118 -14 -68 -67 -96 -184 -96 l-80 0 0 115 0 115 90 0 c63 0
100 -5 121 -16z"/>
<path d="M2140 2248 c-45 -101 -93 -207 -106 -235 l-24 -53 25 0 c22 0 30 9
52 60 l26 60 133 0 133 0 27 -60 c22 -49 31 -60 50 -60 13 0 24 2 24 4 0 1
-47 106 -104 232 -136 300 -124 298 -236 52z m163 1 c26 -59 47 -111 47 -118
0 -13 -210 -16 -210 -3 -1 18 104 242 110 235 4 -4 28 -56 53 -114z"/>
<path d="M2641 2422 c2 -5 49 -111 104 -235 133 -301 118 -301 250 -1 55 125
102 230 103 235 2 5 -7 9 -21 9 -23 0 -33 -18 -113 -200 -48 -110 -91 -197
-96 -192 -4 4 -45 93 -91 197 -78 176 -86 190 -111 193 -16 2 -27 -1 -25 -6z"/>
<path d="M3330 2195 l0 -235 165 0 c158 0 165 1 165 20 0 19 -7 20 -140 20
l-140 0 0 90 0 90 120 0 c113 0 120 1 120 20 0 19 -7 20 -120 20 l-120 0 0 80
0 80 135 0 135 0 0 25 0 25 -160 0 -160 0 0 -235z"/>
<path d="M3930 2196 l0 -236 155 0 c148 0 155 1 155 20 0 19 -7 20 -130 20
l-130 0 -2 213 c-3 211 -3 212 -25 215 l-23 3 0 -235z"/>
</g>
</svg>
